<svg version="1" xmlns="http://www.w3.org/2000/svg" width="933.333" height="933.333" viewBox="0 0 700.000000 700.000000"><path d="M329.8.5c-.1.1-4.1.5-8.8.9-10 .7-22.5 2.2-29.5 3.6-2.7.5-6.1 1.2-7.5 1.4-42.9 7.8-85.7 25.1-125 50.4-8.1 5.2-31.9 22.7-33 24.3-.3.3-2.5 2.3-5 4.4-8.4 6.9-22.9 21.4-36.5 36.5-9.3 10.3-28.7 37.4-35.5 49.5-15.3 27.2-21.9 41.4-30.1 65.2-3.3 9.8-8.1 25.9-9.5 32.6-2 9-5.3 27.2-5.9 32.2-.4 3.3-.9 6.9-1.1 8-1.8 9.8-2.5 57.1-1.1 71.5 1.2 10.9 2.7 22.6 4.1 29.5.2 1.1.6 3.6 1 5.5 4.9 27.2 15.6 59.5 28.3 85.7 40.9 84.4 113.5 149 201.8 179.4 9.3 3.2 13.4 4.4 21 6.5.6.2 1.9.5 3 .7 1.1.3 5.8 1.4 10.5 2.6 17.5 4.1 31.4 6.3 50 7.8 18 1.5 60.9.7 70.5-1.2 1.1-.2 4.5-.7 7.5-1.1 9.7-1.1 15.5-2.1 28.5-5 23.6-5.3 61.7-18.9 78.4-27.9 48.5-26.1 76.1-47.7 110.6-86.6 5.9-6.6 20-25.5 27.1-36.5 31.1-47.8 50.3-103.8 55.2-160.9 1.4-16.5.7-56.3-1.3-70.5-.3-1.9-.7-5.6-1-8.1-.3-2.5-.7-5.4-.9-6.5-.2-1-1.1-6-2.1-10.9-10.8-57.9-37.9-114.3-76.8-160-17.3-20.3-40.2-41.6-60.5-56.3C523.1 43.3 488 26 449.3 14.5c-10.2-3.1-29.4-7.7-36.8-8.9-5.4-.9-23.9-3.5-29.5-4.1-5.6-.7-52.6-1.6-53.2-1zm1.2 85.9c0 .8-2 13-4.5 27.2-2.5 14.3-6.1 34.9-8 45.9-1.9 11-3.7 21.3-4 23-.3 1.6-1.2 6.6-2 11s-1.7 9.3-2 11c-3.4 19.8-5.7 32.5-6.1 34.7l-.5 2.6h7.8c13.5 0 13.1 0 12.8 2.4-.1 1.3-.6 16.2-1 33.3-.4 17-.8 33-1 35.5-.2 2.5-.6 19.1-1.1 37-.4 17.9-.8 33.7-.8 35.2-.1 1.6-.5 2.8-1.1 2.9-.5 0-2.6.2-4.5.4s-7.3.6-12 1c-16.7 1.2-21.6 1.6-26.5 2-2.7.3-9.1.8-14.2 1.1l-9.2.6-1.5-5.4c-1.4-4.8-12.7-46.8-17.7-65.8-1.1-4.1-5.1-19-8.9-33-3.8-14-11.6-43.3-17.5-65-5.8-21.7-13-48.6-16-59.7-3-11-5.5-20.8-5.5-21.6 0-1.8 4.3-5.3 16-13 4.7-3.1 9-6 9.6-6.4 3.7-2.8 23.3-13 31.4-16.3 4.1-1.7 8.9-3.7 10.5-4.5 5.8-2.5 24.9-8.6 31.5-10 .8-.2 4.6-1.1 8.3-2 3.8-.9 8.5-1.8 10.5-2.1 2-.3 7.5-1.1 12.1-1.7 12.2-1.8 15.1-1.8 15.1-.3zm52 .1c8.9 1.2 11.6 1.6 18.8 3.1 15.4 3.1 36.4 9.1 44.7 12.8 1.7.8 7.3 3.2 12.5 5.5 5.2 2.2 15.1 7.3 22 11.2 13 7.4 34 21.7 34 23.3 0 .5-3.3 13.3-7.4 28.5-4.1 15.2-10.6 39.3-14.5 53.6-3.8 14.3-7.9 29.4-9 33.5-6.9 26-30.7 114.4-33.3 123.9l-3.1 11.3-10.1-.6c-5.6-.4-11.7-.9-13.6-1.1-5.6-.5-16.8-1.4-26.5-2-14.4-1-16.8-1.4-17.5-2.6-.4-.6-.8-8.4-1-17.3-.1-8.8-.3-18.6-.5-21.6-.1-3-.6-19.4-1-36.4-.4-16.9-.9-33.1-1-36-.3-4.8-.7-30.9-.6-33.1.1-.6 4-1 9.9-1 5.8 0 9.6-.4 9.6-1-.1-.6-.5-2.8-.8-5-.3-2.2-1-6.7-1.6-10-.6-3.3-1.5-8.7-2.1-12-1.2-7.5-1.2-7.5-3.9-22-1.2-6.6-2.3-12.9-2.5-14-.1-1.1-.7-4.7-1.3-8-.6-3.3-1.8-10.1-2.7-15-.8-5-2-11.3-2.5-14-.5-2.8-1.2-6.6-1.4-8.5-.3-1.9-.8-4.6-1-6-1.1-5.9-5.6-31.8-6.2-35.5-.3-2.2-.8-4.4-1.1-4.8-.5-.8 5.5-.4 14.7.8zM155.5 226.9l-.6 57.8 10.6-2.2c5.8-1.2 10.7-1.9 10.9-1.6.2.3.7 2.8 1 5.6.4 2.7.9 6.1 1.1 7.5.2 1.4.7 4.7 1.1 7.5.9 6.1.8 5.9 2.3 16.5.7 4.7 1.4 9.6 1.6 10.9.2 1.3.7 4.5 1.1 7 .3 2.5.8 5.7 1 7.1.2 1.4.8 5.9 1.4 10 .6 4.1 1.2 8.6 1.5 10 .2 1.4.9 6.1 1.5 10.5s1.3 9.1 1.5 10.5c.2 1.4.7 4.3.9 6.5.3 2.2.8 5.6 1 7.5 1.5 9.7 3.8 25.7 4.1 27.5 1.1 8.8 1.8 12.5 2.3 12.6.4 0 1.4.2 2.2.4.8.1 6.9.6 13.5 1 6.5.4 12.6.8 13.5 1 .8.1 7.1.6 14 .9 6.9.4 13.2.9 14 1.1.8.2 6.5.7 12.5 1 6.1.4 12.8.8 15 1 2.2.2 8.7.6 14.5 1 5.8.4 11.6.9 13 1 1.4.2 3.5.4 4.8.4 2.3.1 2.3.1 1.8 12.8-.3 7.1-.5 16.2-.6 20.3v7.5l-6.7 2.3c-19.2 6.6-33.5 17.7-40 31.1-2.3 4.8-2.7 6.9-2.7 14.6 0 8 .3 9.7 2.9 14.9 6.4 12.7 22.2 24.8 39.9 30.6l3.8 1.2-.5 15.2c-.3 8.3-.6 15.2-.6 15.4-.3 1.3-31.7-5.5-44.1-9.5-63.3-20.4-116.3-62.9-149.5-119.6-16.6-28.6-29.5-65.1-33.1-94.2-.3-2.2-.7-5.1-.9-6.5-2.9-16-2.4-50.5 1-72.7 2.1-13.9 2.2-14.5 5.6-27.3 7-26.4 16-47.9 29.5-70.1 5.6-9.3 17.8-26.6 22.9-32.4 1.4-1.7 4.3-4.9 6.3-7.3 2-2.3 3.8-4.2 4-4.2.2 0 .1 26-.3 57.9zm401.3-43.4c2.5 3.3 4.9 6.2 5.2 6.5 3.2 2.8 19.5 29 25.9 41.7 11.7 23.3 22.4 57.4 24.7 78.8.3 2.7.7 5.6.9 6.2 2.3 7 2.3 54.3.1 65.8-.2 1.1-.7 4.5-1.1 7.5-1.1 8.6-5.3 27.2-8.9 38.9-7.1 22.9-17.5 45.2-31 66.1-21.1 32.6-57.2 66.9-89.1 84.7-9.8 5.5-22.6 11.9-28.5 14.3-3 1.2-6.4 2.6-7.5 3.1-9.1 3.9-34.5 11.5-45 13.4-1.6.3-5.8 1-9.3 1.6-3.5.6-6.6.8-7 .5-.3-.4-.8-7.3-.9-15.4l-.4-14.7 7.8-2.9c16.1-5.9 30.5-17.2 36-28.3 3.4-7 3.6-8 3.7-16.8 0-5.8-.5-8.1-3.1-13.6-6.2-13.4-22.8-26.2-40.5-31.3-3.1-.9-5.9-2-6.2-2.4-.3-.5-.8-9.7-1.1-20.5l-.6-19.7 3.3-.1c1.8 0 4-.2 4.8-.3.8-.2 7.4-.7 14.5-1.1 7.2-.4 13.2-.8 13.5-1 .3-.2 6.1-.6 13-1s13.2-.9 14-1c.8-.2 7.1-.6 14-1s13.3-.9 14.3-1.1c1-.1 6.9-.6 13.3-.9 13.8-.8 14.2-.9 15.3-2.1.7-.8 2-7.9 3.6-20.4.6-4.7 2.3-15.5 3-20.1.3-1.5.7-4.7 1-7 .3-2.4 1.3-9.1 2.1-14.9.9-5.7 1.7-12 2-13.9.2-1.9.6-4.7.9-6.2.3-1.5.7-4.7 1-7 .3-2.4.7-5.5 1-6.9.2-1.4.7-4.5 1-7 .4-2.5.8-5.6 1-7 1.9-11.6 2.5-16.2 3-20.5.3-2.8.7-6 .9-7.3.3-1.3 1-5.9 1.7-10.3 1.3-9.1.4-8.7 13.2-6l8.8 1.8-.6-58.1-.6-58.1 4.1 4.5c2.3 2.5 6.2 7.2 8.8 10.5z"/></svg>